PathFileType	4	(X/Y/Z)	C:\Users\chris\Documents\GitHub\baseballds\vids\pitch2_Sports2D\pitch2_Sports2D_px_person00.trc
DataRate	CameraRate	NumFrames	NumMarkers	Units	OrigDataRate	OrigDataStartFrame	OrigNumFrames
30	30	7	22	m	30	0	243
Frame#	Time	Hip			RHip			RKnee			RAnkle			RBigToe			RSmallToe			RHeel			LHip			LKnee			LAnkle			LBigToe			LSmallToe			LHeel			Neck			Head			Nose			RShoulder			RElbow			RWrist			LShoulder			LElbow			LWrist		
		X1	Y1	Z1	X2	Y2	Z2	X3	Y3	Z3	X4	Y4	Z4	X5	Y5	Z5	X6	Y6	Z6	X7	Y7	Z7	X8	Y8	Z8	X9	Y9	Z9	X10	Y10	Z10	X11	Y11	Z11	X12	Y12	Z12	X13	Y13	Z13	X14	Y14	Z14	X15	Y15	Z15	X16	Y16	Z16	X17	Y17	Z17	X18	Y18	Z18	X19	Y19	Z19	X20	Y20	Z20	X21	Y21	Z21	X22	Y22	Z22
0	0.0	362.72760327053135	934.5341017546675	0.0	362.72736555275947	954.3763239393572	0.0	402.4120988051876	1224.2303922067683	0.0	358.7590441117169	1490.116724306036	0.0	473.8430390487955	1533.7707020643638	0.0	450.03227067646543	1545.6758244016278	0.0	327.01151507999884	1529.8014871801706	0.0	362.728936340862	958.3450863142839	0.0	394.47637055108294	1204.3884699928362	0.0	382.57042549100686	1434.5573756597516	0.0	489.7183035389752	1474.2424970069476	0.0	481.78166575567127	1462.337363371047	0.0	330.9800667777529	1478.2108018070485	0.0	398.44378250683593	505.9420503717288	0.0	450.0332434411621	339.26772373220973	0.0	465.9070127863754	430.541075428477	0.0	374.63259987736967	561.5000529083003	0.0	342.88601123198714	775.7966713053304	0.0	450.0333983652279	950.4080744918612	0.0	370.664514271909	561.5004965364861	0.0	342.88704197739514	775.7961103218881	0.0	414.31798478441635	930.5614064378221	0.0
1	0.03333333333333333	361.6654927359351	931.8282988499627	0.0	362.8048895084625	953.3423200947645	0.0	405.310548714121	1217.999893346571	0.0	359.87034815615704	1480.9983294569347	0.0	480.4093248353084	1525.4660964844504	0.0	455.6034905926185	1539.2396661661958	0.0	327.56847845270136	1523.4228264171218	0.0	356.7912114301951	954.3326014753659	0.0	393.28876822737874	1197.8964393293977	0.0	376.0860220848744	1428.5090227595024	0.0	488.11533335705514	1471.9709936513239	0.0	473.887781992398	1453.0794357186646	0.0	336.06735528984603	1473.6514045001654	0.0	400.48481398702717	509.5445430096878	0.0	449.2030576247354	341.5277729376468	0.0	463.3989117466248	435.0092544716862	0.0	375.4092939775265	565.9860489173731	0.0	339.83619136555177	772.3169488081301	0.0	446.6908170942991	947.9826759581244	0.0	377.13846431212926	565.9695712604021	0.0	349.4211640672683	777.8966720289993	0.0	413.1998874767281	933.6644411968491	0.0
2	0.06666666666666667	361.7004682901835	930.6015502069689	0.0	363.2849522533697	953.5893152655211	0.0	406.5800032940914	1215.3967711585756	0.0	359.8963899813172	1478.349777506365	0.0	482.0908267744365	1521.311212440357	0.0	457.56253617165305	1536.1271373272825	0.0	328.0546150412981	1521.0848667486537	0.0	355.01114112242243	952.5285857834325	0.0	392.2324217789022	1196.0788375623074	0.0	372.57528254482173	1426.9398520965417	0.0	487.0971966118036	1470.4017838900158	0.0	470.66527439043114	1448.682603393591	0.0	335.216989696861	1472.5936561563499	0.0	400.9588998823865	511.2939494488185	0.0	447.23511906251525	344.06642734420126	0.0	466.4856927678245	437.8813791518746	0.0	375.1183580851742	568.8503261718348	0.0	338.50218768707254	771.9047960998857	0.0	444.80905830344363	947.5720470685897	0.0	379.2370934908306	568.8305136080561	0.0	352.5170728912833	779.6382088653367	0.0	415.6927115854827	935.0480874145173	0.0
3	0.1	362.11527869246083	930.9079897129008	0.0	363.1761781987583	954.9748113026399	0.0	405.4923996527115	1216.5858417134552	0.0	359.22373309113897	1481.2144314178556	0.0	479.09575228630365	1522.390711079804	0.0	455.40335629632256	1537.5342829129954	0.0	328.1161517222524	1522.6708275691897	0.0	357.0347573411595	953.0420716012568	0.0	392.0992996549424	1198.5176353965026	0.0	372.7723647069413	1428.9041203381585	0.0	487.09802203257993	1470.8245934783934	0.0	471.98022396573907	1449.7168165448813	0.0	331.1966226458859	1473.5427061023422	0.0	399.5559896335469	511.0348102648682	0.0	444.146041830492	346.35743310111036	0.0	475.73901900233716	440.3343054499864	0.0	373.4580526857068	569.4203151605652	0.0	339.1488791109257	774.5313087827287	0.0	444.038699454404	949.1952550929534	0.0	376.71633953399146	569.4573971890954	0.0	351.6229388670283	780.0592786682487	0.0	420.4083024816611	934.3315602103002	0.0
4	0.13333333333333333	361.8884787156938	931.4727755303944	0.0	362.1215642473943	956.183665705391	0.0	402.9302629970621	1218.253504128603	0.0	358.8877684548395	1483.6087980652546	0.0	476.2311582125907	1525.2029394795768	0.0	452.47634161848555	1540.3320906706922	0.0	327.53183576725553	1524.7938971039969	0.0	358.84966681049843	954.1409169525217	0.0	393.0120792704305	1201.0901567873157	0.0	374.66454377719043	1430.7460102202176	0.0	487.75204499147253	1474.1673861745526	0.0	473.5830186044627	1453.1290873255252	0.0	331.4267757826095	1473.4400324926967	0.0	397.81980445720535	509.8595347444056	0.0	441.7420558476578	347.36394793472016	0.0	487.24239824761617	443.7401955844442	0.0	371.8656357541797	568.4439856658394	0.0	341.07170358732014	778.3250373851279	0.0	443.26297525098926	951.8479838223345	0.0	371.96611101047284	568.6089141824011	0.0	348.3462671969098	779.3113582967746	0.0	422.63982535808304	933.2473140976483	0.0
5	0.16666666666666666	361.2203461278296	931.2275124465104	0.0	361.0001375987654	956.4359379022027	0.0	400.43430831584567	1218.2051841610883	0.0	359.19522339333076	1482.5259480612267	0.0	477.1752623654661	1525.4904770042856	0.0	452.47246906061855	1540.3789902276033	0.0	326.8485653742929	1524.941991005547	0.0	358.7112814116668	954.4763630793029	0.0	394.06604252853197	1202.094596903422	0.0	375.46495890845387	1431.7522475506998	0.0	488.1593594849733	1479.4308234791486	0.0	472.60444798070597	1456.639625727616	0.0	336.2687411159702	1472.9381420656457	0.0	397.84943927555105	509.10271186491184	0.0	441.52695418908877	347.2698206755712	0.0	497.01022255630403	446.73579856380616	0.0	371.72111783490686	567.9874571057687	0.0	343.0721604762648	781.3854717854061	0.0	442.09484581121797	954.5560973141977	0.0	368.1766632742518	568.108917851383	0.0	345.3808580301752	779.0172222105268	0.0	421.3269591605591	933.7613662452543	0.0
6	0.2	360.43231065757436	930.5331357110347	0.0	360.14219882443956	956.3327926738837	0.0	398.3557730726755	1217.7484778515618	0.0	359.60182708122517	1480.8148968069115	0.0	480.67951365039534	1524.042831235952	0.0	455.050544641624	1538.6871594405843	0.0	326.6784058165414	1524.1349950496665	0.0	358.679359988195	954.4991646172875	0.0	394.2668183910663	1203.290664322329	0.0	374.41031988866365	1433.94924775209	0.0	487.9572672107499	1484.0168558451674	0.0	470.8799947832605	1460.5401596662236	0.0	337.93447056762966	1474.848919115852	0.0	400.3238813999222	509.1893715174524	0.0	442.729487623018	347.39126920123067	0.0	503.99801968774426	447.3371409744097	0.0	372.22235008938594	569.4580428403241	0.0	343.81611231995953	782.5072560606055	0.0	440.63913929133446	956.3746644250012	0.0	367.221460093566	568.8460591403767	0.0	344.13074559250117	779.945971348958	0.0	419.3483570656816	935.6506335519946	0.0
